<svg width="77" height="77" viewBox="0 0 77 77" fill="none" xmlns="http://www.w3.org/2000/svg">
<circle cx="38.4001" cy="37.8" r="36" fill="#F9F6EF"/>
<path d="M47.4871 17.4H29.0175C27.7929 17.4 26.6185 17.8865 25.7526 18.7524C24.8866 19.6184 24.4001 20.7928 24.4001 22.0174V57.4175L38.2523 45.1044L52.1045 57.4175V22.0174C52.1045 20.7928 51.6181 19.6184 50.7521 18.7524C49.8862 17.8865 48.7117 17.4 47.4871 17.4Z" fill="#0478ED"/>
<mask id="mask0_89_1022" style="mask-type:alpha" maskUnits="userSpaceOnUse" x="24" y="17" width="29" height="41">
<path d="M47.4871 17.4H29.0175C27.7929 17.4 26.6185 17.8865 25.7526 18.7524C24.8866 19.6184 24.4001 20.7928 24.4001 22.0174V57.4175L38.2523 45.1044L52.1045 57.4175V22.0174C52.1045 20.7928 51.6181 19.6184 50.7521 18.7524C49.8862 17.8865 48.7117 17.4 47.4871 17.4Z" fill="#0478ED"/>
</mask>
<g mask="url(#mask0_89_1022)">
<rect x="38.7664" y="13.2959" width="20.5218" height="51.3044" fill="#51ADEF"/>
</g>
</svg>
