<svg width="36" height="35" viewBox="0 0 36 35" fill="none" xmlns="http://www.w3.org/2000/svg">
<rect width="35" height="35" transform="translate(0.0625)" fill="#F9F6EF"/>
<path d="M5.41699 6.41772V29H28.9993" stroke="#4C616F" stroke-width="2" stroke-linecap="round" stroke-linejoin="round"/>
<path d="M14.1993 15.1997H11.6901C10.9972 15.1997 10.4355 15.7614 10.4355 16.4543V22.7271C10.4355 23.42 10.9972 23.9817 11.6901 23.9817H14.1993C14.8921 23.9817 15.4538 23.42 15.4538 22.7271V16.4543C15.4538 15.7614 14.8921 15.1997 14.1993 15.1997Z" stroke="#4C616F" stroke-width="2" stroke-linecap="round" stroke-linejoin="round"/>
<path d="M24.2354 8.92688H21.7263C21.0334 8.92688 20.4717 9.48857 20.4717 10.1815V22.7272C20.4717 23.42 21.0334 23.9817 21.7263 23.9817H24.2354C24.9283 23.9817 25.49 23.42 25.49 22.7272V10.1815C25.49 9.48857 24.9283 8.92688 24.2354 8.92688Z" stroke="#4C616F" stroke-width="2" stroke-linecap="round" stroke-linejoin="round"/>
</svg>
