<svg width="162" height="168" viewBox="0 0 162 168" fill="none" xmlns="http://www.w3.org/2000/svg">
<path d="M117.68 168C111.143 167.989 104.593 167.405 97.9608 166.588C85.6698 165.075 73.4923 162.534 61.7109 158.7C50.0618 154.91 38.8365 149.852 28.3226 143.567C26.014 142.186 23.7396 140.749 21.502 139.256C14.4089 134.526 8.06713 128.882 3.58681 121.476C0.865188 116.977 -0.773916 112.196 0.367886 106.813C1.21325 102.828 3.48867 99.7955 6.58288 97.3008C14.8571 90.6283 22.8012 83.6158 29.8247 75.5961C36.0362 68.504 40.6933 60.465 44.8961 52.0895C49.7388 42.4409 54.627 32.8193 60.7893 23.89C68.1134 13.2776 77.9036 6.8823 90.8268 5.53514C92.4066 5.37026 93.4242 4.63568 94.0641 3.26044C94.3739 2.59579 95.1696 2.18281 95.3046 1.48141C96.3707 -4.04455 133.155 7.51275 132.408 9.65881C132.277 10.0345 132.247 10.4455 132.116 10.8212C131.122 13.6518 131.65 15.6289 134.339 17.5876C144.249 24.8068 149.304 34.7755 150.42 46.9602C151.417 57.8452 151.14 68.7281 150.153 79.5386C148.379 98.9818 152.519 117.289 159.417 135.231C160.553 138.185 161.575 141.3 161.912 144.42C162.577 150.586 159.41 155.146 154.688 158.727C149.543 162.629 143.381 164.621 137.15 166.006C130.627 167.456 124.16 168.01 117.68 168ZM121.705 156.018C124.298 155.793 128.882 155.748 133.314 154.905C137.189 154.167 141.124 152.982 144.615 151.185C149.619 148.611 150.849 144.011 147.993 139.175C146.295 136.3 143.983 133.666 141.516 131.39C135.832 126.146 129.111 122.386 122.195 119.011C104.252 110.254 85.3023 104.659 65.6428 101.44C53.6124 99.4698 41.509 98.4208 29.3392 100.173C24.8277 100.823 20.3949 101.837 16.5775 104.535C12.7509 107.239 11.6985 110.942 13.5896 115.234C14.1748 116.562 14.8663 117.947 15.8548 118.974C18.3899 121.61 20.9106 124.333 23.8075 126.536C33.8931 134.206 45.3484 139.321 57.1866 143.589C77.4053 150.879 98.1719 155.49 121.705 156.018Z" fill="#FFCA2F"/>
</svg>
