<svg width="160" height="60" viewBox="0 0 160 60" fill="none" xmlns="http://www.w3.org/2000/svg">
<path d="M15.6807 47.3684C23.5818 47.3684 27.7147 42.3529 28.0793 37.2755C28.2009 35.9132 26.6815 35.6656 25.9521 36.6563C24.6758 38.8854 22.3662 40.9907 18.6588 40.9907C12.4594 40.9907 8.32656 35.6036 8.32656 27.3683C8.32656 22.7863 10.5146 19.133 13.9789 19.133C19.2666 19.0711 18.9019 27.8637 24.1288 28.1733C26.9246 28.2971 27.897 26.6872 27.897 25.0773C27.897 20.2476 22.3055 16.3466 15.316 16.4086C7.111 16.4705 0 22.2909 0 31.8266C0 40.1857 6.50324 47.3684 15.6807 47.3684Z" fill="#384F5F"/>
<path d="M58.8244 40.5572L57.4873 29.1021C56.6364 21.3002 51.2879 16.4086 43.3868 16.4086C37.0659 16.4086 31.7175 19.0092 31.7175 23.4674C31.7175 25.5727 33.1761 26.9349 35.3641 26.9349C39.9225 26.9349 38.5246 19.0092 43.3868 19.0092C47.0943 19.0092 48.0667 22.4767 48.7961 29.7213L48.8568 30.4643C47.2766 29.3498 45.0278 28.6067 42.232 28.6067C36.2758 28.6067 31.1705 31.8266 31.2312 38.0185C31.2312 44.2105 36.0935 47.3684 42.6575 47.3684C46.8512 47.3684 49.4038 45.8204 50.7409 43.777C51.1056 46.4396 52.6858 47.1207 56.1502 47.1207C59.0675 47.1207 61.9848 46.7492 61.9848 45.325C61.9848 43.6532 59.3106 44.8297 58.8244 40.5572ZM45.3317 44.6439C42.232 44.6439 40.2264 40.8668 40.2264 36.5944C40.2264 33.4365 42.1105 31.3931 44.6632 31.3931C47.155 31.3931 49.0999 33.2507 49.4646 36.904L49.6469 39.0712C49.8293 41.8575 48.1275 44.6439 45.3317 44.6439Z" fill="#384F5F"/>
<path d="M93.302 40.8049V1.48592C93.302 0.0617705 92.5727 -0.30975 90.9317 0.247527L82.9698 2.72431C82.1797 2.97199 81.6935 3.52927 81.6935 4.14847V4.33422C81.6935 5.88222 84.7324 6.06798 84.7324 8.91628V18.8234C82.909 17.2754 80.5995 16.4086 77.6214 16.4086C69.8418 16.4086 63.2778 22.6624 63.2778 31.8266C63.2778 41.7956 70.1457 47.3684 77.5606 47.3684C80.6602 47.3684 83.6384 46.1919 85.4617 44.0247L85.5832 45.387C85.5832 46.1919 86.1302 46.7492 86.9811 46.7492H94.5176C95.2469 46.7492 95.7331 46.3777 95.7331 45.6966V45.5108C95.7331 44.0247 93.302 43.4055 93.302 40.8049ZM79.5662 44.7058C74.5217 44.5201 71.7259 34.9845 71.969 28.1733C72.0906 22.4148 74.4001 19.0711 78.1076 19.0711C81.6935 19.0711 84.7324 23.2197 84.7324 27.1826V38.0804C84.7324 42.4767 82.0581 44.7058 79.5662 44.7058Z" fill="#384F5F"/>
<path d="M123.691 37.3374C122.537 39.2569 119.984 40.9287 116.763 40.9287C113.116 40.9287 110.32 38.9473 108.74 35.5417L122.233 29.2879C123.874 28.5448 124.907 27.3064 124.907 25.2012C124.907 21.1145 121.382 16.4086 113.42 16.4086C105.458 16.4086 98.7117 22.6624 98.7117 31.6408C98.7117 41.1764 104.972 47.3684 113.42 47.3684C121.26 47.3684 125.393 41.6099 125.758 38.0185C125.819 36.7182 124.421 36.4086 123.691 37.3374ZM112.326 19.133C115.608 19.133 117.188 23.5293 117.188 25.7584C117.188 27.0587 116.702 28.1114 115.608 28.6686L107.768 32.6934C107.342 31.0835 107.16 29.2878 107.16 27.3683C107.16 22.6624 109.105 19.133 112.326 19.133Z" fill="#384F5F"/>
<path d="M158.784 17.0278H151.37C150.579 17.0278 150.093 17.4612 150.093 18.0804V18.3281C150.093 19.8761 154.348 20.2476 152.767 24.1485L146.203 40.0619L139.092 23.2816C137.755 20.0618 140.004 19.8761 140.004 18.3281V18.0804C140.004 17.4612 139.518 17.0278 138.849 17.0278H127.484C126.755 17.0278 126.208 17.3993 126.208 18.0185V18.3281C126.208 19.8761 128.152 20.3714 129.49 23.1578L141.584 48.421C139.883 52.6935 137.451 57.0898 135.324 57.0898C132.164 57.0898 133.744 49.6594 128.76 49.6594C126.451 49.6594 125.114 51.2074 125.114 53.3746C125.114 56.5944 128.578 60 134.048 60C140.308 60 143.468 53.0031 145.413 48.6068L156.9 23.1578C158.116 20.4333 160 19.8761 160 18.3281V18.0185C160 17.3993 159.514 17.0278 158.784 17.0278Z" fill="#384F5F"/>
</svg>
