<svg width="78" height="77" viewBox="0 0 78 77" fill="none" xmlns="http://www.w3.org/2000/svg">
<circle cx="39.2" cy="38.4" r="36" fill="#F9F6EF"/>
<path d="M55.2783 21.0001H23.3218C22.4848 21.0001 21.8 21.6849 21.8 22.5219V54.4784C21.8 55.3153 22.4848 56.0001 23.3218 56.0001H55.2783C56.1153 56.0001 56.8 55.3153 56.8 54.4784V22.5219C56.8 21.6849 56.1153 21.0001 55.2783 21.0001Z" fill="#51ADEF"/>
<path d="M53.1914 25.5652H25.8V43.8261H53.1914V25.5652Z" fill="#0478ED"/>
<path d="M39.8 49.1522H52.8" stroke="white" strokeWidth="2" stroke-miterlimit="10"/>
<path d="M25.6045 49.1522H37.0175" stroke="white" strokeWidth="2" stroke-miterlimit="10"/>
<path d="M42.2676 34.1632L37.9306 31.6523C37.5502 31.4241 37.0176 31.7284 37.0176 32.1849V37.2067C37.0176 37.6632 37.5502 37.9675 37.9306 37.7393L42.1915 35.2284C42.648 35.0002 42.648 34.3915 42.2676 34.1632Z" fill="#F9F6EF"/>
<path d="M37.0176 46.9457C37.0176 46.9457 37.0176 48.3152 37.0176 49.0761C37.0176 49.837 37.0176 51.2066 37.0176 51.2066" stroke="white" strokeWidth="2" stroke-miterlimit="10"/>
</svg>
