<svg width="36" height="35" viewBox="0 0 36 35" fill="none" xmlns="http://www.w3.org/2000/svg">
<rect width="35" height="35" transform="translate(0.0625)" fill="#F9F6EF"/>
<path d="M6.8623 23.5V9.97647C6.8623 8.8849 7.7472 8 8.83878 8H27.4505C28.5421 8 29.427 8.8849 29.427 9.97647V23.5" stroke="#4C616F" stroke-width="2"/>
<path d="M15.2625 23.3333H4.72132C4.35747 23.3333 4.0625 23.6283 4.0625 23.9922V26.0235C4.0625 27.1151 4.9474 28 6.03897 28H15.2625M15.2625 23.3333H31.4037C31.7675 23.3333 32.0625 23.6283 32.0625 23.9922V26.0235C32.0625 27.1151 31.1776 28 30.086 28H15.2625M15.2625 23.3333V28M20.5331 23.3333V28" stroke="#4C616F" stroke-width="2"/>
</svg>
