<svg width="36" height="35" viewBox="0 0 36 35" fill="none" xmlns="http://www.w3.org/2000/svg">
<rect width="35" height="35" transform="translate(0.0625)" fill="#F9F6EF"/>
<path d="M27.5625 6H8.5625C7.63505 6.00264 6.74635 6.37223 6.09054 7.02804C5.43473 7.68385 5.06514 8.57255 5.0625 9.5V21.5C5.06514 22.4274 5.43473 23.3162 6.09054 23.972C6.74635 24.6278 7.63505 24.9974 8.5625 25H11.0625V30L16.92 25.1162C17.0099 25.0411 17.1234 25 17.2406 25H27.5625C28.4899 24.9974 29.3787 24.6278 30.0345 23.972C30.6903 23.3162 31.0599 22.4274 31.0625 21.5V9.5C31.0599 8.57255 30.6903 7.68385 30.0345 7.02804C29.3787 6.37223 28.4899 6.00264 27.5625 6Z" stroke="#4C616F" stroke-width="2.23256" stroke-linejoin="round"/>
</svg>
