<svg width="172" height="172" viewBox="0 0 172 172" fill="none" xmlns="http://www.w3.org/2000/svg">
<circle cx="86" cy="86" r="86" fill="#FDE395"/>
<circle cx="86" cy="86" r="54" fill="#FFCA2F"/>
<path d="M75.2857 71.7055C75.2857 77.0656 70.9685 81.4109 65.6429 81.4109C60.3173 81.4109 56 77.0656 56 71.7055C56 66.3453 60.3173 62 65.6429 62C70.9685 62 75.2857 66.3453 75.2857 71.7055Z" fill="#E5A021"/>
<path d="M116 71.7055C116 77.0656 111.683 81.4109 106.357 81.4109C101.032 81.4109 96.7143 77.0656 96.7143 71.7055C96.7143 66.3453 101.032 62 106.357 62C111.683 62 116 66.3453 116 71.7055Z" fill="#E5A021"/>
<path d="M58.1429 98.6651C61.9682 110.47 72.9945 119 86.0002 119C99.0059 119 110.032 110.47 113.857 98.6651H58.1429Z" fill="#E5A021"/>
</svg>
